<svg xmlns="http://www.w3.org/2000/svg" xmlns:xlink="http://www.w3.org/1999/xlink" width="200" height="200" class="icon" p-id="1101" t="1546833265368" version="1.1" viewBox="0 0 1024 1024"><defs><style type="text/css"/></defs><path fill="#1EC38B" d="M384 768c-213.333333 0-384-170.666667-384-384s170.666667-384 384-384 384 170.666667 384 384S597.333333 768 384 768zM384 85.333333C217.6 85.333333 85.333333 217.6 85.333333 384s132.266667 298.666667 298.666667 298.666667 298.666667-132.266667 298.666667-298.666667S550.4 85.333333 384 85.333333z" p-id="1102"/><path fill="#1EC38B" d="M981.333333 1024c-12.8 0-21.333333-4.266667-29.866667-12.8l-341.333333-341.333333c-17.066667-17.066667-17.066667-42.666667 0-59.733333s42.666667-17.066667 59.733333 0l341.333333 341.333333c17.066667 17.066667 17.066667 42.666667 0 59.733333C1002.666667 1019.733333 994.133333 1024 981.333333 1024z" p-id="1103"/></svg>